<svg xmlns="http://www.w3.org/2000/svg" version="1.1" xmlns:xlink="http://www.w3.org/1999/xlink" xmlns:svgjs="http://svgjs.dev/svgjs" width="2000" height="616" viewBox="0 0 2000 616"><g transform="matrix(1,0,0,1,-1.2121212121212466,0.49417743673063796)"><svg viewBox="0 0 396 122" data-background-color="#97978d" preserveAspectRatio="xMidYMid meet" height="616" width="2000" xmlns="http://www.w3.org/2000/svg" xmlns:xlink="http://www.w3.org/1999/xlink"><g id="tight-bounds" transform="matrix(1,0,0,1,0.2400000000000091,-0.09787280402781562)"><svg viewBox="0 0 395.52 122.1957456080556" height="122.1957456080556" width="395.52"><g><svg viewBox="0 0 654.7439578606752 202.28288357897085" height="122.1957456080556" width="395.52"><g transform="matrix(1,0,0,1,259.2239578606753,40.658107186690685)"><svg viewBox="0 0 395.52 120.96666920558948" height="120.96666920558948" width="395.52"><g id="textblocktransform"><svg viewBox="0 0 395.52 120.96666920558948" height="120.96666920558948" width="395.52" id="textblock"><g><svg viewBox="0 0 395.52 68.68654124457308" height="68.68654124457308" width="395.52"><g transform="matrix(1,0,0,1,0,0)"><svg width="395.52" viewBox="2.05 -35.5 207.26999999999998 36" height="68.68654124457308" data-palette-color="#ffffff"><path d="M2.05 0L2.05-35 7.55-35 7.55-20.75 13.45-20.75 13.45-35 18.95-35 18.95 0 13.45 0 13.45-15.75 7.55-15.75 7.55 0 2.05 0ZM31 0.5Q26.95 0.5 24.8-1.8 22.65-4.1 22.65-8.3L22.65-8.3 22.65-26.7Q22.65-30.9 24.8-33.2 26.95-35.5 31-35.5L31-35.5Q35.05-35.5 37.2-33.2 39.35-30.9 39.35-26.7L39.35-26.7 39.35-8.3Q39.35-4.1 37.2-1.8 35.05 0.5 31 0.5L31 0.5ZM31-4.5Q33.85-4.5 33.85-7.95L33.85-7.95 33.85-27.05Q33.85-30.5 31-30.5L31-30.5Q28.15-30.5 28.15-27.05L28.15-27.05 28.15-7.95Q28.15-4.5 31-4.5L31-4.5ZM47.15 0L47.15-30 41.4-30 41.4-35 58.4-35 58.4-30 52.65-30 52.65 0 47.15 0ZM61.04 0L61.04-35 76.04-35 76.04-30 66.54-30 66.54-20.75 74.09-20.75 74.09-15.75 66.54-15.75 66.54-5 76.04-5 76.04 0 61.04 0ZM79.19 0L79.19-35 84.69-35 84.69-5 93.74-5 93.74 0 79.19 0ZM104.39 0L104.39-35 112.54-35Q116.79-35 118.74-33.02 120.69-31.05 120.69-26.95L120.69-26.95 120.69-24.8Q120.69-19.35 117.09-17.9L117.09-17.9 117.09-17.8Q119.09-17.2 119.91-15.35 120.74-13.5 120.74-10.4L120.74-10.4 120.74-4.25Q120.74-2.75 120.84-1.83 120.94-0.9 121.34 0L121.34 0 115.74 0Q115.44-0.85 115.34-1.6 115.24-2.35 115.24-4.3L115.24-4.3 115.24-10.7Q115.24-13.1 114.46-14.05 113.69-15 111.79-15L111.79-15 109.89-15 109.89 0 104.39 0ZM109.89-20L111.89-20Q113.54-20 114.36-20.85 115.19-21.7 115.19-23.7L115.19-23.7 115.19-26.4Q115.19-28.3 114.51-29.15 113.84-30 112.39-30L112.39-30 109.89-30 109.89-20ZM124.53 0L124.53-35 139.53-35 139.53-30 130.03-30 130.03-20.75 137.58-20.75 137.58-15.75 130.03-15.75 130.03-5 139.53-5 139.53 0 124.53 0ZM141.23 0L146.93-35 154.38-35 160.08 0 154.58 0 153.58-6.95 153.58-6.85 147.33-6.85 146.33 0 141.23 0ZM147.98-11.6L152.93-11.6 150.48-28.9 150.38-28.9 147.98-11.6ZM162.73 0L162.73-35 168.23-35 168.23-5 177.28-5 177.28 0 162.73 0ZM180.33 0L180.33-30 174.58-30 174.58-35 191.58-35 191.58-30 185.83-30 185.83 0 180.33 0ZM190.47 0L196.17-35 203.62-35 209.32 0 203.82 0 202.82-6.95 202.82-6.85 196.57-6.85 195.57 0 190.47 0ZM197.22-11.6L202.17-11.6 199.72-28.9 199.62-28.9 197.22-11.6Z" opacity="1" transform="matrix(1,0,0,1,0,0)" fill="#ffffff" class="wordmark-text-0" data-fill-palette-color="primary" id="text-0"></path></svg></g></svg></g><g transform="matrix(1,0,0,1,75.54432,84.90178515542692)"><svg viewBox="0 0 244.43135999999998 36.06488405016256" height="36.06488405016256" width="244.43135999999998"><g transform="matrix(1,0,0,1,0,0)"><svg width="244.43135999999998" viewBox="0.75 -36.5 322.92 47.65" height="36.06488405016256" data-palette-color="#ffffff"><path d="M11.45 0.5L11.45 0.5Q7.95 0.5 5.55-1 3.15-2.5 1.95-5.03 0.75-7.55 0.75-10.55L0.75-10.55Q0.75-13.65 1.95-16.55 3.15-19.45 5.33-21.73 7.5-24 10.5-25.33 13.5-26.65 17.1-26.65L17.1-26.65Q21.3-26.65 23.78-24.8 26.25-22.95 27.05-19.95L27.05-19.95 20.15-17.95Q19.65-19.4 18.55-20.18 17.45-20.95 15.9-20.95L15.9-20.95Q14.35-20.95 12.88-20.23 11.4-19.5 10.23-18.18 9.05-16.85 8.38-15.1 7.7-13.35 7.7-11.35L7.7-11.35Q7.7-9.55 8.3-8.15 8.9-6.75 10-5.98 11.1-5.2 12.55-5.2L12.55-5.2Q13.65-5.2 14.73-5.6 15.8-6 16.7-6.7 17.6-7.4 18.15-8.3L18.15-8.3 24.25-6.3Q22.95-4.35 21-2.8 19.05-1.25 16.63-0.38 14.2 0.5 11.45 0.5ZM26.9 0L34.65-36.5 41.35-36.5 38.1-21.35Q40-23.85 42.65-25.25 45.3-26.65 48.1-26.65L48.1-26.65Q50.45-26.65 51.77-25.83 53.1-25 53.67-23.63 54.25-22.25 54.25-20.5L54.25-20.5Q54.25-19.5 54.12-18.45 54-17.4 53.75-16.35L53.75-16.35 50.3 0 43.6 0 46.7-14.7Q46.85-15.4 46.92-16 47-16.6 47-17.15L47-17.15Q47-19 46.2-19.88 45.4-20.75 43.95-20.75L43.95-20.75Q42.9-20.75 41.52-20.05 40.15-19.35 38.9-18.13 37.65-16.9 36.85-15.3L36.85-15.3 33.6 0 26.9 0ZM67.7 0.5L67.7 0.5Q64.4 0.5 61.97-0.93 59.55-2.35 58.27-4.88 57-7.4 57-10.6L57-10.6Q57-13.85 58.25-16.75 59.5-19.65 61.75-21.88 64-24.1 67-25.38 70-26.65 73.5-26.65L73.5-26.65Q76.35-26.65 78.45-25.8 80.55-24.95 81.7-23.33 82.85-21.7 82.85-19.35L82.85-19.35Q82.85-15.2 79.07-13.05 75.3-10.9 67.75-10.9L67.75-10.9Q66.25-10.9 64.5-10.98 62.75-11.05 60.7-11.25L60.7-11.25 61.55-15.45Q63.35-15.3 64.85-15.23 66.35-15.15 67.8-15.15L67.8-15.15Q71.05-15.15 72.92-15.6 74.8-16.05 75.65-16.9 76.5-17.75 76.5-18.9L76.5-18.9Q76.5-19.9 76-20.53 75.5-21.15 74.62-21.48 73.75-21.8 72.55-21.8L72.55-21.8Q70.6-21.8 68.97-20.88 67.35-19.95 66.15-18.35 64.95-16.75 64.3-14.7 63.65-12.65 63.65-10.35L63.65-10.35Q63.65-8.65 64.22-7.28 64.8-5.9 65.95-5.15 67.1-4.4 68.9-4.4L68.9-4.4Q70.9-4.4 72.67-5.35 74.45-6.3 75.5-8L75.5-8 80.8-6.35Q79.5-4.35 77.4-2.8 75.3-1.25 72.8-0.38 70.3 0.5 67.7 0.5ZM95.19 0.5L95.19 0.5Q91.69 0.5 89.29-1 86.89-2.5 85.69-5.03 84.49-7.55 84.49-10.55L84.49-10.55Q84.49-13.65 85.69-16.55 86.89-19.45 89.07-21.73 91.24-24 94.24-25.33 97.24-26.65 100.84-26.65L100.84-26.65Q105.04-26.65 107.52-24.8 109.99-22.95 110.79-19.95L110.79-19.95 103.89-17.95Q103.39-19.4 102.29-20.18 101.19-20.95 99.64-20.95L99.64-20.95Q98.09-20.95 96.62-20.23 95.14-19.5 93.97-18.18 92.79-16.85 92.12-15.1 91.44-13.35 91.44-11.35L91.44-11.35Q91.44-9.55 92.04-8.15 92.64-6.75 93.74-5.98 94.84-5.2 96.29-5.2L96.29-5.2Q97.39-5.2 98.47-5.6 99.54-6 100.44-6.7 101.34-7.4 101.89-8.3L101.89-8.3 107.99-6.3Q106.69-4.35 104.74-2.8 102.79-1.25 100.37-0.38 97.94 0.5 95.19 0.5ZM127.84 0L122.74-11.85Q126.99-12.7 129.29-14.6 131.59-16.5 131.59-18.65L131.59-18.65Q131.59-19.85 130.94-20.38 130.29-20.9 129.29-20.9L129.29-20.9Q127.49-20.9 125.49-19.5 123.49-18.1 121.87-15.78 120.24-13.45 119.39-10.65L119.39-10.65 120.64-18.25Q122.09-20.7 123.87-22.58 125.64-24.45 127.72-25.5 129.79-26.55 132.14-26.55L132.14-26.55Q134.89-26.55 136.24-25.03 137.59-23.5 137.59-20.85L137.59-20.85Q137.59-17.6 135.67-14.85 133.74-12.1 130.04-10.25L130.04-10.25 134.94 0 127.84 0ZM110.64 0L118.39-36.5 125.04-36.5 117.29 0 110.64 0ZM150.44 0L155.99-26.2 162.69-26.2 157.14 0 150.44 0ZM156.79-29.85L158.19-36.5 164.89-36.5 163.49-29.85 156.79-29.85ZM163.08 0L168.63-26.2 174.68-26.2 173.63-21.35Q174.93-23.05 176.66-24.23 178.38-25.4 180.41-26.03 182.43-26.65 184.58-26.65L184.58-26.65Q186.88-26.65 188.13-25.85 189.38-25.05 189.91-23.68 190.43-22.3 190.43-20.6L190.43-20.6Q190.43-19.55 190.28-18.5 190.13-17.45 189.93-16.35L189.93-16.35 186.48 0 179.78 0 182.88-14.7Q183.08-15.45 183.16-16.1 183.23-16.75 183.23-17.35L183.23-17.35Q183.23-19.1 182.46-19.93 181.68-20.75 180.38-20.75L180.38-20.75Q179.18-20.75 177.78-20.05 176.38-19.35 175.13-18.13 173.88-16.9 173.03-15.3L173.03-15.3 169.78 0 163.08 0ZM214.23 0.5L214.23 0.5Q211.33 0.5 209.25-0.93 207.18-2.35 206.05-4.78 204.93-7.2 204.93-10.25L204.93-10.25Q204.93-13.5 206.08-16.45 207.23-19.4 209.25-21.7 211.28-24 213.85-25.33 216.43-26.65 219.28-26.65L219.28-26.65Q221.98-26.65 223.88-25.23 225.78-23.8 226.48-21.6L226.48-21.6 229.68-36.5 236.38-36.5 230.28-7.7Q230.23-7.45 230.18-7.23 230.13-7 230.13-6.8L230.13-6.8Q230.13-5.75 231.33-5.7L231.33-5.7 230.13 0Q229.23 0.15 228.55 0.25 227.88 0.35 227.38 0.35L227.38 0.35Q225.63 0.35 224.6-0.38 223.58-1.1 223.58-2.5L223.58-2.5Q223.58-2.75 223.63-3.05 223.68-3.35 223.73-3.73 223.78-4.1 223.88-4.55L223.88-4.55Q221.98-2.1 219.38-0.8 216.78 0.5 214.23 0.5ZM217.23-5.2L217.23-5.2Q218.08-5.2 219.03-5.53 219.98-5.85 220.9-6.43 221.83-7 222.63-7.83 223.43-8.65 223.98-9.6L223.98-9.6 225.28-15.85Q225.13-17.3 224.38-18.45 223.63-19.6 222.53-20.28 221.43-20.95 220.18-20.95L220.18-20.95Q218.58-20.95 217.1-20.13 215.63-19.3 214.48-17.93 213.33-16.55 212.65-14.83 211.98-13.1 211.98-11.3L211.98-11.3Q211.98-9.6 212.63-8.2 213.28-6.8 214.45-6 215.63-5.2 217.23-5.2ZM246.98 0.5L246.98 0.5Q243.18 0.5 240.75-1 238.33-2.5 237.18-5.03 236.03-7.55 236.03-10.6L236.03-10.6Q236.03-13.8 237.2-16.7 238.38-19.6 240.53-21.85 242.68-24.1 245.6-25.38 248.53-26.65 252.03-26.65L252.03-26.65Q255.83-26.65 258.25-25.15 260.68-23.65 261.83-21.15 262.98-18.65 262.98-15.55L262.98-15.55Q262.98-12.35 261.8-9.45 260.63-6.55 258.48-4.3 256.33-2.05 253.4-0.78 250.48 0.5 246.98 0.5ZM247.98-5.2L247.98-5.2Q249.53-5.2 250.98-5.9 252.43-6.6 253.55-7.9 254.68-9.2 255.35-10.95 256.03-12.7 256.03-14.75L256.03-14.75Q256.03-16.6 255.45-18 254.88-19.4 253.75-20.18 252.63-20.95 251.03-20.95L251.03-20.95Q249.48-20.95 248.05-20.25 246.63-19.55 245.48-18.25 244.33-16.95 243.65-15.18 242.98-13.4 242.98-11.35L242.98-11.35Q242.98-9.55 243.55-8.15 244.13-6.75 245.25-5.98 246.38-5.2 247.98-5.2ZM264.37 0L269.92-26.2 275.97-26.2 274.92-21.35Q276.22-23.05 277.95-24.23 279.67-25.4 281.7-26.03 283.72-26.65 285.87-26.65L285.87-26.65Q288.17-26.65 289.42-25.85 290.67-25.05 291.2-23.68 291.72-22.3 291.72-20.6L291.72-20.6Q291.72-19.55 291.57-18.5 291.42-17.45 291.22-16.35L291.22-16.35 287.77 0 281.07 0 284.17-14.7Q284.37-15.45 284.45-16.1 284.52-16.75 284.52-17.35L284.52-17.35Q284.52-19.1 283.75-19.93 282.97-20.75 281.67-20.75L281.67-20.75Q280.47-20.75 279.07-20.05 277.67-19.35 276.42-18.13 275.17-16.9 274.32-15.3L274.32-15.3 271.07 0 264.37 0ZM301.77 11.15L301.77 11.15Q297.67 11.15 295.15 9.73 292.62 8.3 291.17 5.7L291.17 5.7 295.57 2.15Q296.57 4 298.47 5.05 300.37 6.1 302.82 6.1L302.82 6.1Q304.77 6.1 306.57 5.33 308.37 4.55 309.75 2.93 311.12 1.3 311.62-1.25L311.62-1.25 312.32-4.55Q310.62-2.3 308.15-1.07 305.67 0.15 303.17 0.15L303.17 0.15Q300.42 0.15 298.45-1.25 296.47-2.65 295.47-5.03 294.47-7.4 294.47-10.3L294.47-10.3Q294.47-13.55 295.65-16.5 296.82-19.45 298.9-21.73 300.97-24 303.65-25.33 306.32-26.65 309.27-26.65L309.27-26.65Q312.17-26.65 314.05-25.28 315.92-23.9 316.82-21.6L316.82-21.6 317.77-26.2 323.67-26.2 318.32-1.25Q317.52 2.65 315.12 5.43 312.72 8.2 309.27 9.68 305.82 11.15 301.77 11.15ZM306.62-5.2L306.62-5.2Q307.62-5.2 308.6-5.55 309.57-5.9 310.47-6.5 311.37-7.1 312.12-7.93 312.87-8.75 313.42-9.6L313.42-9.6 314.72-15.85Q314.52-17.4 313.77-18.55 313.02-19.7 311.95-20.33 310.87-20.95 309.57-20.95L309.57-20.95Q307.92-20.95 306.47-20.1 305.02-19.25 303.87-17.88 302.72-16.5 302.07-14.8 301.42-13.1 301.42-11.3L301.42-11.3Q301.42-9.65 302.07-8.22 302.72-6.8 303.9-6 305.07-5.2 306.62-5.2Z" opacity="1" transform="matrix(1,0,0,1,0,0)" fill="#ffffff" class="slogan-text-1" data-fill-palette-color="secondary" id="text-1"></path></svg></g></svg></g></svg></g></svg></g><g><svg viewBox="0 0 243.00871394982144 202.28288357897085" height="202.28288357897085" width="243.00871394982144"><g><svg version="1.1" xmlns="http://www.w3.org/2000/svg" xmlns:xlink="http://www.w3.org/1999/xlink" x="0" y="0" viewBox="0.23999999999999666 0 100.00000000000001 83.241" enable-background="new 0.24 12.616 100 70.625" xml:space="preserve" width="243.00871394982144" height="202.28288357897085" class="icon-icon-0" data-fill-palette-color="accent" id="icon-0"><rect x="41.932" y="19.744" width="39.071" height="6.451" fill="#ffffff" data-fill-palette-color="accent"></rect><polyline points="41.811,20.405 38.457,20.405 43.969,12.616 78.844,12.616 84.479,20.405 80.882,20.405 " fill="#ffffff" data-fill-palette-color="accent"></polyline><line fill="none" x1="86.621" y1="34.698" x2="91.972" y2="34.698"></line><rect x="86.621" y="32.9" width="5.351" height="3.596" fill="#ffffff" data-fill-palette-color="accent"></rect><path d="M100.24 62.654H89.813V31.912h10.427V62.654zM91.972 60.496h6.111V34.069h-6.111V60.496z" fill="#ffffff" data-fill-palette-color="accent"></path><path d="M87.028 25.369H35.59V82.98h15.431V71.664h9.26V82.98h3.086V71.664h8.23V82.98h15.431V25.369zM57.194 62.405H41.763v-7.202h15.431V62.405zM57.194 51.088H41.763v-7.201h15.431V51.088zM57.194 38.743H41.763v-7.201h15.431V38.743zM80.856 62.405H65.425v-7.202h15.432V62.405zM80.856 51.088H65.425v-7.201h15.432V51.088zM80.856 38.743H65.425v-7.201h15.432V38.743z" fill="#ffffff" data-fill-palette-color="accent"></path><path d="M26.194 83.241c0 0 2.674-11.427-1.626-18.217-4.3-6.791-8.034-7.814-8.996-8.151-2.198-0.768-8.874 5.639-8.316 11.094-2.77-3.756-3.514-11.706 2.729-14.668-1.922-1.134-6.963 1.151-9.745 3.578 0-4.864 5.26-9.927 10.871-8.976 0.873-1.204 1.244-8.532 12.312-8.806-4.337 2.223-7.23 7.445-6.896 9.483 0.418-0.53 8.829-6.921 16.289 3.281-4.765-1.664-10.517-1.664-13.229 2.528 16.068 7.468 11.51 28.846 11.03 28.851C29.868 83.241 26.194 83.241 26.194 83.241z" fill="#ffffff" data-fill-palette-color="accent"></path></svg></g></svg></g></svg></g><defs></defs></svg><rect width="395.52" height="122.1957456080556" fill="none" stroke="none" visibility="hidden"></rect></g></svg></g></svg>